<?xml version="1.0" encoding="UTF-8"?>
<svg version="1.1" xmlns="http://www.w3.org/2000/svg" width="512" height="512">
<path d="M0 0 C6.53664799 3.44498888 11.48929357 9.20241723 16.61743164 14.41503906 C17.77669379 15.57923494 18.93677858 16.7426122 20.09764099 17.9052124 C22.52172832 20.33691254 24.9392376 22.77489313 27.3515625 25.21826172 C30.42487974 28.33108462 33.50880379 31.43310763 36.59707737 34.53108597 C39.56570628 37.50975162 42.52942397 40.49328316 45.49243164 43.47753906 C46.04852175 44.03702492 46.60461185 44.59651077 47.17755318 45.17295074 C48.77287488 46.78002021 50.36474199 48.39043302 51.95556641 50.00195312 C52.85743179 50.91366272 53.75929718 51.82537231 54.68849182 52.76470947 C56.80355145 54.94788432 58.80147653 57.21022371 60.78552246 59.51287842 C64.75121292 64.07831708 68.98515694 68.34160999 73.26953125 72.60644531 C74.54390549 73.88103859 74.54390549 73.88103859 75.84402466 75.18138123 C78.14958478 77.48636849 80.45733176 79.78913761 82.766114 82.09089661 C85.1875662 84.50605164 87.60614278 86.92408306 90.02503967 89.34179688 C94.59499993 93.90866244 99.16750081 98.47297528 103.74094445 103.03635216 C108.95219041 108.23637884 114.16056049 113.43928203 119.36870372 118.642416 C130.07213813 129.33542823 140.7791373 140.02486439 151.48852539 150.71191406 C155.67280032 149.0735856 158.46238145 146.00178507 161.55455017 142.86621094 C162.15880579 142.26154747 162.76306141 141.656884 163.38562781 141.0338974 C165.41160282 139.00418835 167.4303355 136.96742535 169.44921875 134.93066406 C170.89935386 133.47505427 172.34995224 132.01990588 173.80097961 130.56518555 C176.92600713 127.43044132 180.0479489 124.2926668 183.16761589 121.15258789 C188.09915062 116.18927328 193.03880727 111.23409676 197.97987366 106.28027344 C210.25146018 93.97458163 222.51374203 81.65962901 234.7711792 69.33984375 C244.296453 59.76614733 253.82486877 50.19563238 263.36388689 40.63562775 C268.27790794 35.71006933 273.18489581 30.77764103 278.08677089 25.83999634 C281.13602348 22.77157485 284.19149313 19.70940386 287.24874687 16.6489563 C288.66674237 15.22693602 290.08214576 13.80232561 291.49477005 12.37496948 C293.42149965 10.42887203 295.35724202 8.49220591 297.29551697 6.55761719 C297.85408463 5.98894676 298.41265229 5.42027634 298.98814625 4.83437347 C303.27263479 0.5887113 306.33450253 -1.07621484 312.30102539 -1.66308594 C316.98007144 -1.5215647 320.71021105 -0.02757327 324.48852539 2.71191406 C328.37412349 7.59381936 329.56926195 11.28436499 329.81665039 17.48144531 C328.85410534 24.02445989 324.40915098 28.21823653 319.92860413 32.64605713 C319.25916053 33.31947513 318.58971693 33.99289314 317.89998716 34.68671775 C315.6593133 36.93700114 313.40809418 39.1764232 311.15673828 41.41601562 C309.54641266 43.02876961 307.9367331 44.64216891 306.32765198 46.25616455 C301.95857212 50.63464975 297.58013638 55.00366709 293.19969869 59.37078571 C288.619028 63.94014288 284.04607003 68.51720724 279.47203064 73.09320068 C271.79107771 80.77503648 264.10420417 88.45090087 256.41357422 96.12304688 C248.50090359 104.01670491 240.59422879 111.91630749 232.69384766 119.82226562 C223.17044998 129.35236614 213.64207565 138.87745193 204.10906792 148.39794159 C200.46824779 152.03411218 196.829325 155.67216619 193.19188118 159.31171417 C188.91116184 163.59431402 184.62549355 167.87189895 180.3359127 172.14562225 C178.76038303 173.7169016 177.18655613 175.28989042 175.6145401 176.86468506 C173.47275436 179.00968235 171.32493904 181.14845167 169.1754303 183.28570557 C168.5510125 183.91390269 167.92659471 184.5420998 167.28325516 185.1893332 C166.70586419 185.76089198 166.12847322 186.33245076 165.53358555 186.9213295 C165.03853757 187.41551069 164.5434896 187.90969189 164.03344017 188.41884828 C160.48636787 191.38768377 157.30833047 192.06984758 152.73852539 192.21191406 C151.75368164 192.26347656 150.76883789 192.31503906 149.75415039 192.36816406 C142.38379026 190.88703906 136.6595901 184.17566554 131.51042175 178.98777771 C130.85641823 178.33689416 130.2024147 177.68601062 129.52859288 177.01540333 C127.35838217 174.85311172 125.19532166 172.68381235 123.03222656 170.5144043 C121.46984492 168.95473514 119.90703866 167.39549125 118.34384155 165.8366394 C114.11436094 161.61625212 109.8912017 157.38959248 105.66944289 153.16148257 C101.24692606 148.73389264 96.81952077 144.31119529 92.39289856 139.88771057 C84.48885425 131.98753352 76.58985338 124.08233098 68.69283698 116.17513032 C61.53583719 109.00918665 54.37359693 101.84851587 47.20751953 94.69165039 C38.8750097 86.36984699 30.54587121 78.04468802 22.22166806 69.7145744 C17.81896109 65.3087492 13.41491346 60.90428699 9.0073452 56.50332451 C4.8668112 52.3685635 0.73119219 48.2289488 -3.4006691 44.0855217 C-4.91831274 42.56523176 -6.43766425 41.04664453 -7.95883369 39.52988243 C-10.03330927 37.46086443 -12.101538 35.38579659 -14.16828918 33.30906677 C-14.77275448 32.70906292 -15.37721978 32.10905907 -16.00000221 31.49087328 C-20.79108419 26.65475996 -23.9398558 22.85973174 -23.94897461 15.77441406 C-23.80956661 10.60998132 -23.11678424 7.6095461 -19.51147461 3.71191406 C-13.50722237 -1.70655747 -7.55334346 -2.77073212 0 0 Z " fill="#9D3F7C" transform="translate(103.511474609375,160.2880859375)"/>
</svg>
